#usda 1.0
# Generated by scripts/build_finger_contact_regions.py; do not edit by hand.
(
    metersPerUnit = 1
    upAxis = "Z"
)

def Mesh "link_3_collision_01_shell" (
    prepend apiSchemas = ["PhysicsCollisionAPI", "PhysicsMeshCollisionAPI"]
)
{
    int[] faceVertexCounts = [3, 3, 3, 3, 3, 3, 3, 3, 3, 3, 3, 3, 3, 3, 3, 3, 3, 3, 3, 3]
    int[] faceVertexIndices = [5, 0, 4, 5, 1, 0, 5, 8, 9, 5, 4, 8, 6, 8, 4, 6, 10, 8, 6, 4, 0, 6, 0, 2, 11, 9, 8, 11, 8, 10, 11, 5, 9, 11, 7, 5, 3, 10, 6, 3, 6, 2, 3, 11, 10, 3, 7, 11, 3, 0, 1, 3, 2, 0, 3, 1, 5, 3, 5, 7]
    uniform token physics:approximation = "convexHull"
    point3f[] points = [(0.0055, -0.006, -0.010067), (0.0055, -0.006, 0.01015), (0.0055, 0.0052, -0.010067), (0.0055, 0.0052, 0.01015), (0.0315, -0.006, -0.010067), (0.0315, -0.006, 0.01015), (0.0315, 0.0052, -0.010067), (0.0315, 0.0052, 0.01015), (0.037266135, -0.0004069367, -0.008881734), (0.037266135, -0.0004069367, 0.008964734), (0.037266135, 0.0052, -0.008881734), (0.037266135, 0.0052, 0.008964734)]
    uniform token purpose = "guide"
    uniform token subdivisionScheme = "none"
}

def Mesh "link_3_collision_01_pad" (
    prepend apiSchemas = ["PhysicsCollisionAPI", "PhysicsMeshCollisionAPI"]
)
{
    int[] faceVertexCounts = [3, 3, 3, 3, 3, 3, 3, 3, 3, 3, 3, 3, 3, 3, 3, 3, 3, 3, 3, 3]
    int[] faceVertexIndices = [9, 8, 10, 9, 10, 11, 3, 0, 1, 3, 2, 0, 6, 4, 0, 6, 0, 2, 6, 8, 4, 6, 10, 8, 5, 0, 4, 5, 1, 0, 5, 4, 8, 5, 8, 9, 7, 9, 11, 7, 5, 9, 7, 3, 1, 7, 1, 5, 7, 11, 10, 7, 10, 6, 7, 2, 3, 7, 6, 2]
    uniform token physics:approximation = "convexHull"
    point3f[] points = [(0.0055, 0.0052, -0.010067), (0.0055, 0.0052, 0.01015), (0.0055, 0.0062, -0.010067), (0.0055, 0.0062, 0.01015), (0.0315, 0.0052, -0.010067), (0.0315, 0.0052, 0.01015), (0.0315, 0.0062, -0.010067), (0.0315, 0.0062, 0.01015), (0.037266135, 0.0052, -0.008881734), (0.037266135, 0.0052, 0.008964734), (0.037266135, 0.0061999997, -0.008881734), (0.037266135, 0.0061999997, 0.008964734)]
    uniform token purpose = "guide"
    uniform token subdivisionScheme = "none"
}

def Mesh "link_3_collision_02_shell" (
    prepend apiSchemas = ["PhysicsCollisionAPI", "PhysicsMeshCollisionAPI"]
)
{
    int[] faceVertexCounts = [3, 3, 3, 3, 3, 3, 3, 3, 3, 3, 3, 3, 3, 3, 3, 3, 3, 3, 3, 3, 3, 3, 3, 3, 3, 3, 3, 3, 3, 3, 3, 3, 3, 3, 3, 3, 3, 3, 3, 3]
    int[] faceVertexIndices = [12, 0, 7, 12, 1, 0, 20, 21, 12, 13, 20, 12, 18, 1, 19, 4, 5, 6, 9, 6, 5, 14, 11, 10, 14, 10, 15, 16, 15, 10, 3, 0, 1, 3, 2, 0, 8, 0, 2, 8, 7, 0, 19, 1, 12, 19, 12, 21, 13, 7, 8, 13, 12, 7, 4, 3, 1, 4, 1, 5, 9, 5, 10, 9, 10, 11, 17, 5, 1, 17, 1, 18, 16, 2, 3, 16, 8, 2, 16, 19, 21, 16, 21, 20, 16, 9, 11, 16, 20, 13, 16, 3, 4, 16, 13, 8, 16, 18, 19, 16, 4, 6, 16, 6, 9, 16, 17, 18, 16, 11, 14, 16, 14, 15, 16, 10, 5, 16, 5, 17]
    uniform token physics:approximation = "convexHull"
    point3f[] points = [(0.037266135, -0.00042217292, -0.008881734), (0.037266135, -0.00042217292, 0.0089217415), (0.037266135, 0.0052, -0.008881734), (0.037266135, 0.0052, 0.0089217415), (0.056540918, 0.0052, 0.0051562167), (0.06222465, 0.004905121, 0.0040458413), (0.06222465, 0.0052, 0.0040458413), (0.062225595, 0.004905323, -0.003967671), (0.062225595, 0.0052, -0.003967671), (0.06251204, 0.0052, 0.00393145), (0.06348664, 0.005174489, 0.003543526), (0.06348664, 0.0052, 0.003543526), (0.06348723, 0.005174613, -0.003463507), (0.06348723, 0.0052, -0.003463507), (0.06351326, 0.0052, 0.0035202072), (0.063606165, 0.0052, 0.0034388064), (0.063606165, 0.0052, 0.0033983975), (0.063606165, 0.0052, 0.0028353978), (0.063606165, 0.0052, 0.0018250436), (0.06360617, 0.0052, 0.00064372463), (0.06360617, 0.0052, -0.003359092), (0.06360617, 0.0052, -0.003258668)]
    uniform token purpose = "guide"
    uniform token subdivisionScheme = "none"
}

def Mesh "link_3_collision_02_pad" (
    prepend apiSchemas = ["PhysicsCollisionAPI", "PhysicsMeshCollisionAPI"]
)
{
    int[] faceVertexCounts = [3, 3, 3, 3, 3, 3, 3, 3, 3, 3, 3, 3, 3, 3, 3, 3, 3, 3, 3, 3, 3, 3, 3, 3, 3, 3, 3, 3, 3, 3, 3, 3, 3, 3, 3, 3, 3, 3, 3, 3, 3, 3, 3, 3, 3, 3, 3, 3, 3, 3, 3, 3, 3, 3, 3, 3, 3, 3, 3, 3]
    int[] faceVertexIndices = [8, 2, 13, 31, 2, 3, 25, 13, 2, 4, 3, 1, 29, 2, 31, 29, 25, 2, 28, 30, 24, 11, 3, 6, 11, 23, 3, 11, 9, 10, 27, 31, 3, 27, 3, 23, 21, 30, 19, 16, 17, 26, 18, 26, 17, 3, 0, 1, 3, 2, 0, 8, 0, 2, 8, 7, 0, 12, 7, 8, 12, 8, 13, 6, 4, 5, 6, 3, 4, 20, 12, 13, 20, 13, 25, 20, 25, 24, 28, 29, 31, 28, 31, 30, 28, 24, 25, 28, 25, 29, 11, 6, 5, 11, 5, 9, 27, 30, 31, 27, 26, 30, 22, 26, 27, 22, 27, 23, 14, 11, 10, 14, 23, 11, 14, 22, 23, 14, 15, 22, 21, 20, 24, 21, 24, 30, 16, 26, 22, 16, 22, 15, 18, 1, 0, 18, 0, 7, 18, 7, 12, 18, 12, 20, 18, 4, 1, 18, 5, 4, 18, 10, 9, 18, 9, 5, 18, 14, 10, 18, 15, 14, 18, 20, 21, 18, 16, 15, 18, 21, 19, 18, 17, 16, 18, 30, 26, 18, 19, 30]
    uniform token physics:approximation = "convexHull"
    point3f[] points = [(0.037266135, 0.0052, -0.008881734), (0.037266135, 0.0052, 0.0089217415), (0.037266135, 0.0062, -0.008881734), (0.037266135, 0.0062, 0.0089217415), (0.056540918, 0.0052, 0.0051562167), (0.06222465, 0.0052, 0.0040458413), (0.06222465, 0.0061999997, 0.004045841), (0.062225595, 0.0052, -0.003967671), (0.062225595, 0.0061999997, -0.003967671), (0.06251204, 0.0052, 0.00393145), (0.06348664, 0.0052, 0.003543526), (0.06348664, 0.0061999997, 0.0035435257), (0.06348723, 0.0052, -0.003463507), (0.06348723, 0.0061999997, -0.003463507), (0.06351326, 0.0052, 0.0035202072), (0.063606165, 0.0052, 0.0034388064), (0.063606165, 0.0052, 0.0033983975), (0.063606165, 0.0052, 0.0028353978), (0.063606165, 0.0052, 0.0018250436), (0.06360617, 0.0052, 0.00064372463), (0.06360617, 0.0052, -0.003359092), (0.06360617, 0.0052, -0.003258668), (0.06455651, 0.0054028477, 0.0026061404), (0.06455651, 0.0061999997, 0.0026061404), (0.06455679, 0.005402907, -0.0025245543), (0.06455679, 0.0061999997, -0.0025245543), (0.06527138, 0.0055554323, 0.0013763924), (0.06527138, 0.0061999997, 0.0013763924), (0.065271445, 0.0055554467, -0.0012937592), (0.065271445, 0.0061999997, -0.0012937592), (0.0655224, 0.005609012, 0.00004150049), (0.0655224, 0.0061999997, 0.00004150049)]
    uniform token purpose = "guide"
    uniform token subdivisionScheme = "none"
}

def Mesh "link_3_right_collision_01_shell" (
    prepend apiSchemas = ["PhysicsCollisionAPI", "PhysicsMeshCollisionAPI"]
)
{
    int[] faceVertexCounts = [3, 3, 3, 3, 3, 3, 3, 3, 3, 3, 3, 3, 3, 3, 3, 3, 3, 3, 3, 3]
    int[] faceVertexIndices = [3, 0, 1, 3, 2, 0, 6, 4, 0, 6, 0, 2, 6, 8, 4, 6, 10, 8, 6, 2, 3, 6, 3, 7, 5, 0, 4, 5, 1, 0, 5, 4, 8, 5, 8, 9, 5, 3, 1, 5, 7, 3, 11, 10, 6, 11, 6, 7, 11, 5, 9, 11, 7, 5, 11, 9, 8, 11, 8, 10]
    uniform token physics:approximation = "convexHull"
    point3f[] points = [(0.0055, -0.0052, -0.010067), (0.0055, -0.0052, 0.01015), (0.0055, 0.006, -0.010067), (0.0055, 0.006, 0.01015), (0.0315, -0.0052, -0.010067), (0.0315, -0.0052, 0.01015), (0.0315, 0.006, -0.010067), (0.0315, 0.006, 0.01015), (0.037266135, -0.0052, -0.008881734), (0.037266135, -0.0052, 0.008964734), (0.037266135, 0.0004069367, -0.008881734), (0.037266135, 0.0004069367, 0.008964734)]
    uniform token purpose = "guide"
    uniform token subdivisionScheme = "none"
}

def Mesh "link_3_right_collision_01_pad" (
    prepend apiSchemas = ["PhysicsCollisionAPI", "PhysicsMeshCollisionAPI"]
)
{
    int[] faceVertexCounts = [3, 3, 3, 3, 3, 3, 3, 3, 3, 3, 3, 3, 3, 3, 3, 3, 3, 3, 3, 3]
    int[] faceVertexIndices = [9, 10, 11, 9, 8, 10, 3, 0, 1, 3, 2, 0, 6, 0, 2, 6, 4, 0, 6, 10, 8, 6, 8, 4, 5, 1, 0, 5, 0, 4, 5, 8, 9, 5, 4, 8, 7, 11, 10, 7, 2, 3, 7, 6, 2, 7, 10, 6, 7, 9, 11, 7, 5, 9, 7, 3, 1, 7, 1, 5]
    uniform token physics:approximation = "convexHull"
    point3f[] points = [(0.0055, -0.0062, -0.010067), (0.0055, -0.0062, 0.01015), (0.0055, -0.0052, -0.010067), (0.0055, -0.0052, 0.01015), (0.0315, -0.0062, -0.010067), (0.0315, -0.0062, 0.01015), (0.0315, -0.0052, -0.010067), (0.0315, -0.0052, 0.01015), (0.037266135, -0.0061999997, -0.008881734), (0.037266135, -0.0061999997, 0.008964734), (0.037266135, -0.0052, -0.008881734), (0.037266135, -0.0052, 0.008964734)]
    uniform token purpose = "guide"
    uniform token subdivisionScheme = "none"
}

def Mesh "link_3_right_collision_02_shell" (
    prepend apiSchemas = ["PhysicsCollisionAPI", "PhysicsMeshCollisionAPI"]
)
{
    int[] faceVertexCounts = [3, 3, 3, 3, 3, 3, 3, 3, 3, 3, 3, 3, 3, 3, 3, 3, 3, 3, 3, 3, 3, 3, 3, 3, 3, 3, 3, 3, 3, 3, 3, 3, 3, 3, 3, 3, 3, 3, 3, 3]
    int[] faceVertexIndices = [13, 8, 2, 13, 2, 3, 14, 11, 10, 14, 15, 11, 4, 5, 6, 9, 6, 5, 20, 12, 13, 20, 13, 21, 16, 11, 15, 18, 19, 3, 3, 0, 1, 3, 2, 0, 8, 0, 2, 8, 7, 0, 13, 7, 8, 13, 12, 7, 19, 21, 13, 19, 13, 3, 4, 3, 1, 4, 6, 3, 9, 10, 11, 9, 11, 6, 16, 6, 11, 16, 17, 6, 18, 1, 0, 18, 0, 7, 18, 10, 9, 18, 14, 10, 18, 7, 12, 18, 21, 19, 18, 4, 1, 18, 15, 14, 18, 20, 21, 18, 5, 4, 18, 9, 5, 18, 12, 20, 18, 16, 15, 18, 17, 16, 18, 3, 6, 18, 6, 17]
    uniform token physics:approximation = "convexHull"
    point3f[] points = [(0.037266135, -0.0052, -0.008881734), (0.037266135, -0.0052, 0.0089217415), (0.037266135, 0.00042217292, -0.008881734), (0.037266135, 0.00042217292, 0.0089217415), (0.056540918, -0.0052, 0.0051562167), (0.06222465, -0.0052, 0.0040458413), (0.06222465, -0.004905121, 0.0040458413), (0.062225595, -0.0052, -0.003967671), (0.062225595, -0.004905323, -0.003967671), (0.06251204, -0.0052, 0.00393145), (0.06348664, -0.0052, 0.003543526), (0.06348664, -0.005174489, 0.003543526), (0.06348723, -0.0052, -0.003463507), (0.06348723, -0.005174613, -0.003463507), (0.06351326, -0.0052, 0.0035202072), (0.063606165, -0.0052, 0.0034388064), (0.063606165, -0.0052, 0.0033983975), (0.063606165, -0.0052, 0.0028353978), (0.063606165, -0.0052, 0.0018250436), (0.06360617, -0.0052, 0.00064372463), (0.06360617, -0.0052, -0.003359092), (0.06360617, -0.0052, -0.003258668)]
    uniform token purpose = "guide"
    uniform token subdivisionScheme = "none"
}

def Mesh "link_3_right_collision_02_pad" (
    prepend apiSchemas = ["PhysicsCollisionAPI", "PhysicsMeshCollisionAPI"]
)
{
    int[] faceVertexCounts = [3, 3, 3, 3, 3, 3, 3, 3, 3, 3, 3, 3, 3, 3, 3, 3, 3, 3, 3, 3, 3, 3, 3, 3, 3, 3, 3, 3, 3, 3, 3, 3, 3, 3, 3, 3, 3, 3, 3, 3, 3, 3, 3, 3, 3, 3, 3, 3, 3, 3, 3, 3, 3, 3, 3, 3, 3, 3, 3, 3]
    int[] faceVertexIndices = [1, 0, 30, 4, 3, 1, 28, 30, 0, 28, 0, 24, 12, 0, 7, 12, 24, 0, 26, 1, 30, 26, 22, 1, 10, 5, 1, 10, 1, 22, 31, 29, 25, 9, 10, 11, 21, 19, 31, 16, 27, 17, 18, 17, 27, 3, 0, 1, 3, 2, 0, 4, 1, 5, 4, 5, 6, 8, 0, 2, 8, 7, 0, 12, 8, 13, 12, 7, 8, 23, 26, 27, 23, 22, 26, 25, 28, 24, 25, 29, 28, 31, 27, 26, 31, 26, 30, 31, 28, 29, 31, 30, 28, 9, 6, 5, 9, 5, 10, 14, 22, 23, 14, 23, 15, 14, 10, 22, 14, 11, 10, 20, 12, 13, 20, 24, 12, 20, 25, 24, 21, 25, 20, 21, 31, 25, 16, 23, 27, 16, 15, 23, 18, 2, 3, 18, 4, 6, 18, 8, 2, 18, 3, 4, 18, 13, 8, 18, 14, 15, 18, 6, 9, 18, 9, 11, 18, 11, 14, 18, 20, 13, 18, 21, 20, 18, 15, 16, 18, 19, 21, 18, 16, 17, 18, 27, 31, 18, 31, 19]
    uniform token physics:approximation = "convexHull"
    point3f[] points = [(0.037266135, -0.0062, -0.008881734), (0.037266135, -0.0062, 0.0089217415), (0.037266135, -0.0052, -0.008881734), (0.037266135, -0.0052, 0.0089217415), (0.056540918, -0.0052, 0.0051562167), (0.06222465, -0.0061999997, 0.004045841), (0.06222465, -0.0052, 0.0040458413), (0.062225595, -0.0061999997, -0.003967671), (0.062225595, -0.0052, -0.003967671), (0.06251204, -0.0052, 0.00393145), (0.06348664, -0.0061999997, 0.0035435257), (0.06348664, -0.0052, 0.003543526), (0.06348723, -0.0061999997, -0.003463507), (0.06348723, -0.0052, -0.003463507), (0.06351326, -0.0052, 0.0035202072), (0.063606165, -0.0052, 0.0034388064), (0.063606165, -0.0052, 0.0033983975), (0.063606165, -0.0052, 0.0028353978), (0.063606165, -0.0052, 0.0018250436), (0.06360617, -0.0052, 0.00064372463), (0.06360617, -0.0052, -0.003359092), (0.06360617, -0.0052, -0.003258668), (0.06455651, -0.0061999997, 0.0026061404), (0.06455651, -0.0054028477, 0.0026061404), (0.06455679, -0.0061999997, -0.0025245543), (0.06455679, -0.005402907, -0.0025245543), (0.06527138, -0.0061999997, 0.0013763924), (0.06527138, -0.0055554323, 0.0013763924), (0.065271445, -0.0061999997, -0.0012937592), (0.065271445, -0.0055554467, -0.0012937592), (0.0655224, -0.0061999997, 0.00004150049), (0.0655224, -0.005609012, 0.00004150049)]
    uniform token purpose = "guide"
    uniform token subdivisionScheme = "none"
}
